<?xml version="1.0" standalone="no"?>
<!DOCTYPE svg PUBLIC "-//W3C//DTD SVG 20010904//EN"
 "http://www.w3.org/TR/2001/REC-SVG-20010904/DTD/svg10.dtd">
<svg version="1.0" xmlns="http://www.w3.org/2000/svg"
 width="387.000000pt" height="387.000000pt" viewBox="0 0 387.000000 387.000000"
 preserveAspectRatio="xMidYMid meet">
<metadata>
Created by potrace 1.11, written by Peter Selinger 2001-2013
</metadata>
<g transform="translate(0.000000,387.000000) scale(0.100000,-0.100000)"
fill="#000000" stroke="none">
<path d="M1861 3863 c-53 -10 -131 -76 -164 -138 -11 -22 -23 -69 -26 -104
l-6 -63 -130 -76 c-71 -41 -218 -125 -325 -187 -107 -62 -275 -159 -374 -215
l-179 -103 -41 21 c-83 44 -167 48 -245 10 -186 -90 -203 -348 -30 -460 l49
-31 0 -587 0 -588 -29 -12 c-43 -17 -102 -81 -122 -131 -55 -136 23 -312 157
-352 71 -22 152 -15 211 18 l50 26 191 -111 c106 -61 207 -119 225 -129 17
-10 91 -52 162 -94 72 -41 149 -85 171 -98 23 -13 92 -53 153 -88 l111 -64 1
-51 c1 -144 112 -256 252 -256 82 0 130 17 182 62 55 49 86 113 90 186 3 50 7
59 32 75 15 9 242 141 504 292 l476 275 52 -26 c100 -52 229 -33 310 47 110
109 97 300 -26 394 -25 19 -52 35 -59 35 -10 0 -12 117 -12 590 l0 590 34 16
c82 39 137 131 137 228 0 204 -198 329 -380 240 l-55 -27 -37 20 c-20 11 -123
70 -229 132 -106 61 -207 120 -225 130 -17 10 -75 43 -127 73 -167 96 -205
118 -220 128 -8 6 -22 13 -30 17 -8 4 -43 24 -79 44 l-64 38 -2 59 c-7 169
-156 278 -334 245z m-62 -485 l41 -22 0 -113 c1 -62 1 -169 1 -238 0 -69 0
-172 -1 -230 l0 -105 -30 0 c-50 0 -195 -55 -272 -103 -68 -42 -188 -150 -188
-169 0 -20 -41 1 -295 148 -149 87 -280 162 -293 168 -19 9 -22 18 -20 55 3
42 6 46 53 74 58 34 812 470 859 496 17 10 47 28 66 39 19 12 36 22 37 22 0 0
20 -10 42 -22z m819 -273 l502 -290 0 -45 0 -45 -289 -168 c-159 -92 -293
-167 -298 -167 -5 0 -25 20 -45 44 -45 53 -144 128 -218 166 -50 25 -151 59
-221 74 l-27 6 1 338 0 339 36 20 c20 12 41 20 47 20 5 -1 236 -132 512 -292z
m-1666 -711 c150 -86 277 -161 281 -164 5 -4 -1 -35 -12 -70 -41 -124 -45
-284 -10 -416 11 -44 22 -85 22 -92 1 -8 -120 -85 -287 -182 l-289 -168 -36
21 c-20 12 -38 24 -41 28 -7 9 -6 1166 0 1171 37 24 68 37 82 34 9 -2 139 -75
290 -162z m2302 145 l36 -21 0 -589 c0 -420 -3 -589 -11 -589 -6 0 -23 -9 -39
-20 l-28 -20 -238 138 c-132 76 -264 153 -295 171 l-56 34 25 76 c22 67 26 93
26 216 0 123 -4 149 -26 216 l-25 75 286 166 c157 91 291 167 298 167 6 1 28
-8 47 -20z m-1061 -139 c51 -44 116 -154 145 -245 23 -70 29 -107 31 -193 2
-94 -2 -130 -23 -228 -8 -38 -49 -127 -81 -179 -38 -60 -90 -113 -136 -139
l-34 -18 37 31 c67 57 139 205 154 318 3 26 8 57 10 68 6 26 6 204 0 230 -2
11 -7 41 -10 66 -16 116 -76 246 -149 320 -41 42 -41 42 -7 19 19 -14 48 -36
63 -50z m-808 -973 c27 -30 70 -70 95 -90 64 -50 202 -114 283 -131 38 -8 71
-17 73 -19 4 -4 6 -254 4 -594 l0 -81 -36 -21 c-19 -12 -39 -21 -43 -21 -5 0
-177 97 -382 216 -206 119 -433 250 -505 292 l-132 75 2 45 1 44 275 159 c151
87 282 163 290 168 22 14 20 15 75 -42z m1270 -17 c55 -32 181 -105 280 -162
l180 -103 3 -46 3 -47 -83 -48 c-46 -27 -92 -53 -103 -59 -11 -6 -202 -116
-424 -244 l-403 -233 -43 21 -42 21 0 335 c0 236 3 338 11 343 6 3 22 8 35 10
57 8 177 53 244 93 40 24 103 74 142 114 42 43 76 71 85 68 8 -2 60 -30 115
-63z"/>
</g>
</svg>
